<svg xmlns="http://www.w3.org/2000/svg" width="20.093" height="20.093" viewBox="0 0 20.093 20.093"><defs><style>.a{fill:#f26c61;}</style></defs><g transform="translate(3.921)"><path class="a" d="M115.742,1.762a.342.342,0,0,0,.342-.342V.342A.342.342,0,0,0,115.742,0H100.254a.342.342,0,0,0-.342.342V15.83a.342.342,0,0,0,.342.342h15.487a.342.342,0,0,0,.342-.342V2.56a.342.342,0,1,0-.684,0V8.424H114.04a.342.342,0,0,0,0,.684H115.4v6.379h-9.778V13.831a.342.342,0,1,0-.684,0v1.656H100.6V.684h4.34V11.367a.342.342,0,1,0,.684,0V9.109h6.092a.342.342,0,0,0,0-.684h-6.092V.684H115.4V1.42A.342.342,0,0,0,115.742,1.762Z" transform="translate(-99.912)"/></g><g transform="translate(0)"><path class="a" d="M2.892,1.975,1.762.161a.342.342,0,0,0-.581,0L.052,1.975A.342.342,0,0,0,.343,2.5H1.13V3.929a.342.342,0,1,0,.684,0V2.5H2.6a.342.342,0,0,0,.29-.523ZM.959,1.814,1.472.99l.513.824Z" transform="translate(0)"/></g><g transform="translate(0 4.5)"><path class="a" d="M2.9,124.013a.342.342,0,0,0-.3-.176H1.814v-8.832a.342.342,0,1,0-.684,0v8.832H.343a.342.342,0,0,0-.291.523l1.129,1.814a.342.342,0,0,0,.581,0l1.129-1.814A.342.342,0,0,0,2.9,124.013Zm-1.429,1.332-.513-.824H1.985Z" transform="translate(0 -114.663)"/></g><g transform="translate(3.921 17.15)"><path class="a" d="M115.923,438.186l-1.814-1.129a.342.342,0,0,0-.523.29v.787H102.41v-.787a.342.342,0,0,0-.523-.29l-1.814,1.129a.342.342,0,0,0,0,.581l1.814,1.129a.342.342,0,0,0,.523-.291v-.787h11.175v.787a.342.342,0,0,0,.523.291l1.814-1.129a.342.342,0,0,0,0-.581Zm-14.2.8-.824-.513.824-.513Zm12.544,0v-1.026l.824.513Z" transform="translate(-99.912 -437.005)"/></g></svg>