<svg xmlns="http://www.w3.org/2000/svg" width="22.118" height="19.169" viewBox="0 0 22.118 19.169"><defs><style>.a{fill:#f26c61;}</style></defs><g transform="translate(0 0)"><path class="a" d="M21.749,43.059h-.369V41.953a1.843,1.843,0,0,0-1.106-1.687V34.58a.369.369,0,0,0-.221-.338,1.459,1.459,0,0,0,.221-.768,1.475,1.475,0,1,0-2.949,0,1.46,1.46,0,0,0,.2.737H4.587a1.46,1.46,0,0,0,.2-.737,1.475,1.475,0,1,0-2.949,0,1.459,1.459,0,0,0,.221.768.369.369,0,0,0-.221.338v5.686A1.843,1.843,0,0,0,.737,41.953v1.106H.369A.369.369,0,0,0,0,43.428v5.161a.369.369,0,0,0,.369.369H.737V50.8a.369.369,0,0,0,.369.369H2.58a.369.369,0,0,0,.369-.369V48.957h16.22V50.8a.369.369,0,0,0,.369.369h1.475a.369.369,0,0,0,.369-.369V48.957h.369a.369.369,0,0,0,.369-.369V43.428A.369.369,0,0,0,21.749,43.059ZM18.8,32.737a.737.737,0,1,1-.737.737A.737.737,0,0,1,18.8,32.737Zm-15.483,0a.737.737,0,1,1-.737.737A.737.737,0,0,1,3.318,32.737ZM2.58,34.949H19.538V40.11H18.053A1.824,1.824,0,0,0,18.432,39v-.737a1.845,1.845,0,0,0-1.843-1.843H13.639A1.845,1.845,0,0,0,11.8,38.267V39a1.824,1.824,0,0,0,.378,1.106H9.944A1.824,1.824,0,0,0,10.322,39v-.737a1.845,1.845,0,0,0-1.843-1.843H5.53a1.845,1.845,0,0,0-1.843,1.843V39a1.824,1.824,0,0,0,.378,1.106H2.58Zm15.114,3.318V39a1.106,1.106,0,0,1-1.106,1.106H13.639A1.106,1.106,0,0,1,12.534,39v-.737a1.106,1.106,0,0,1,1.106-1.106h2.949A1.106,1.106,0,0,1,17.694,38.267Zm-8.11,0V39A1.106,1.106,0,0,1,8.479,40.11H5.53A1.106,1.106,0,0,1,4.424,39v-.737A1.106,1.106,0,0,1,5.53,37.161H8.479A1.106,1.106,0,0,1,9.584,38.267Zm-8.11,3.686A1.106,1.106,0,0,1,2.58,40.847H19.538a1.106,1.106,0,0,1,1.106,1.106v1.106H1.475Zm.737,8.479H1.475V48.957h.737Zm18.432,0h-.737V48.957h.737Zm.737-2.212H.737V43.8H21.381Z" transform="translate(0 -32)"/></g><g transform="translate(1.475 14.745)"><path class="a" d="M33.843,352H32.369a.369.369,0,1,0,0,.737h1.475a.369.369,0,1,0,0-.737Z" transform="translate(-32 -352)"/></g><g transform="translate(4.424 14.745)"><path class="a" d="M111.851,352H96.369a.369.369,0,1,0,0,.737h15.483a.369.369,0,1,0,0-.737Z" transform="translate(-96 -352)"/></g></svg>