<svg xmlns="http://www.w3.org/2000/svg" width="106.021" height="31.145" viewBox="0 0 106.021 31.145"><defs><style>.a{stroke:#fff;}.b{fill:#fff;}</style></defs><g transform="translate(0.5 0.5)"><path class="a" d="M110.521,32.618a3.027,3.027,0,0,1-3.027,3.027H8.527A3.027,3.027,0,0,1,5.5,32.618V8.527A3.027,3.027,0,0,1,8.527,5.5h98.967a3.027,3.027,0,0,1,3.027,3.027V32.618Z" transform="translate(-5.5 -5.5)"/><path class="b" d="M92.381,82.006a4.541,4.541,0,0,1,2.181-3.836,4.676,4.676,0,0,0-3.694-1.988c-1.552-.167-3.053.924-3.848.924s-2.027-.911-3.335-.885a4.877,4.877,0,0,0-4.131,2.527c-1.783,3.092-.449,7.645,1.257,10.147.859,1.231,1.86,2.591,3.168,2.54s1.757-.821,3.31-.821,1.988.821,3.322.783,2.245-1.231,3.066-2.463a10.108,10.108,0,0,0,1.4-2.861A4.425,4.425,0,0,1,92.381,82.006Z" transform="translate(-69.316 -67.1)"/><path class="b" d="M145.1,41.52a4.435,4.435,0,0,0,1.026-3.22,4.543,4.543,0,0,0-2.963,1.539,4.062,4.062,0,0,0-1.052,3.1A3.864,3.864,0,0,0,145.1,41.52Z" transform="translate(-124.558 -34.092)"/><g transform="translate(32.762 13.521)"><path class="b" d="M269.764,122.393h-1.8l-.975-3.079h-3.412l-.936,3.079H260.9l3.374-10.493h2.091Zm-3.066-4.374-.885-2.745q-.141-.423-.526-1.975h-.026q-.154.667-.5,1.975l-.872,2.745Z" transform="translate(-260.9 -111.772)"/><path class="b" d="M348.086,137.347a4.272,4.272,0,0,1-1.052,3.053,3.079,3.079,0,0,1-2.335,1,2.324,2.324,0,0,1-2.155-1.078V144.3h-1.68v-8.159q0-1.219-.064-2.489h1.475l.09,1.206h.026a2.98,2.98,0,0,1,4.785-.3A4.1,4.1,0,0,1,348.086,137.347Zm-1.719.064a3.115,3.115,0,0,0-.5-1.822,1.719,1.719,0,0,0-1.462-.744,1.744,1.744,0,0,0-1.129.41,1.911,1.911,0,0,0-.667,1.078,2.193,2.193,0,0,0-.077.513V138.1a2.027,2.027,0,0,0,.5,1.4,1.68,1.68,0,0,0,1.321.564,1.719,1.719,0,0,0,1.475-.731,3.114,3.114,0,0,0,.552-1.924Z" transform="translate(-330.551 -130.6)"/><path class="b" d="M415.986,137.347a4.272,4.272,0,0,1-1.052,3.053,3.079,3.079,0,0,1-2.335,1,2.324,2.324,0,0,1-2.155-1.078V144.3h-1.681v-8.159q0-1.219-.064-2.489h1.475l.09,1.206h.026a2.98,2.98,0,0,1,4.785-.3A4.1,4.1,0,0,1,415.986,137.347Zm-1.719.064a3.115,3.115,0,0,0-.5-1.822,1.719,1.719,0,0,0-1.462-.744,1.757,1.757,0,0,0-1.129.41,1.911,1.911,0,0,0-.667,1.078,2.245,2.245,0,0,0-.077.513V138.1a2.027,2.027,0,0,0,.5,1.4,1.68,1.68,0,0,0,1.321.564,1.719,1.719,0,0,0,1.488-.731A3.223,3.223,0,0,0,414.267,137.411Z" transform="translate(-389.74 -130.6)"/><path class="b" d="M497.117,118.584a2.781,2.781,0,0,1-.936,2.181,4.534,4.534,0,0,1-2.861.924,5,5,0,0,1-2.719-.654l.385-1.4a4.682,4.682,0,0,0,2.424.654,2.3,2.3,0,0,0,1.475-.423,1.4,1.4,0,0,0,.526-1.142,1.462,1.462,0,0,0-.436-1.078,3.921,3.921,0,0,0-1.45-.808q-2.758-1.026-2.758-3a2.656,2.656,0,0,1,.975-2.117,3.87,3.87,0,0,1,2.578-.821,4.508,4.508,0,0,1,2.386.5l-.41,1.347a4.169,4.169,0,0,0-2.014-.487,2,2,0,0,0-1.385.436,1.244,1.244,0,0,0-.423.949,1.283,1.283,0,0,0,.487,1.026,5.551,5.551,0,0,0,1.527.808,5.214,5.214,0,0,1,1.988,1.27A2.655,2.655,0,0,1,497.117,118.584Z" transform="translate(-461.135 -110.9)"/><path class="b" d="M553.505,123.156h-1.847v3.669q0,1.4.975,1.4a2.95,2.95,0,0,0,.744-.077l.051,1.283a3.81,3.81,0,0,1-1.309.192,2,2,0,0,1-1.552-.6,3.042,3.042,0,0,1-.564-2.04v-3.836h-1.1v-1.257H550V120.5l1.655-.5v1.886h1.86Z" transform="translate(-511.956 -118.833)"/><path class="b" d="M599.515,137.373a4.123,4.123,0,0,1-1,2.861,3.644,3.644,0,0,1-2.771,1.155,3.387,3.387,0,0,1-2.655-1.1,4.017,4.017,0,0,1-.988-2.784,4.126,4.126,0,0,1,1.026-2.886,3.872,3.872,0,0,1,5.426-.013A3.758,3.758,0,0,1,599.515,137.373Zm-1.745.038a3.387,3.387,0,0,0-.449-1.783,1.662,1.662,0,0,0-1.514-.9,1.693,1.693,0,0,0-1.539.9,3.45,3.45,0,0,0-.449,1.822,3.373,3.373,0,0,0,.449,1.783,1.73,1.73,0,0,0,3.04-.013A3.4,3.4,0,0,0,597.77,137.412Z" transform="translate(-549.614 -130.6)"/><path class="b" d="M664.953,135.042a2.923,2.923,0,0,0-.526-.051,1.591,1.591,0,0,0-1.373.667,2.527,2.527,0,0,0-.423,1.5v3.977h-1.68v-5.182q0-1.308-.051-2.386h1.462l.064,1.45h.051a2.59,2.59,0,0,1,.847-1.206,2.04,2.04,0,0,1,1.219-.41l.423.026v1.6Z" transform="translate(-609.589 -130.514)"/><path class="b" d="M705.434,136.817a3.938,3.938,0,0,1-.064.757h-5.054a2.208,2.208,0,0,0,.731,1.719,2.179,2.179,0,0,0,1.655.526,5.58,5.58,0,0,0,2.04-.359l.269,1.167a6.311,6.311,0,0,1-2.54.462,3.692,3.692,0,0,1-2.771-1.039,3.773,3.773,0,0,1-1-2.784,4.343,4.343,0,0,1,.936-2.848,3.44,3.44,0,0,1,2.643-1.219,2.8,2.8,0,0,1,2.476,1.219A4.258,4.258,0,0,1,705.434,136.817Zm-1.6-.436a2.27,2.27,0,0,0-.321-1.3,1.466,1.466,0,0,0-1.334-.706,1.591,1.591,0,0,0-1.334.68,2.514,2.514,0,0,0-.5,1.308Z" transform="translate(-642.539 -130.339)"/></g><g transform="translate(33.391 4.464)"><path class="b" d="M270.149,47.557h-.885l-.487-1.514h-1.655l-.462,1.514H265.8l1.655-5.157h1.026Zm-1.5-2.155-.436-1.347c-.051-.141-.128-.462-.257-.975h-.013c-.051.218-.128.539-.244.975l-.423,1.347Z" transform="translate(-265.8 -42.131)"/><path class="b" d="M307.779,53.6l-1.411,3.72h-.808L304.2,53.6h.885l.641,1.963c.1.334.192.641.269.936h.026c.064-.269.154-.577.269-.936l.629-1.963Z" transform="translate(-299.274 -51.894)"/><path class="b" d="M339.722,56.961l-.064-.423h-.026a1.27,1.27,0,0,1-1.09.513,1.079,1.079,0,0,1-1.142-1.09c0-.924.8-1.4,2.168-1.4V54.5q0-.731-.77-.731a1.732,1.732,0,0,0-.975.282l-.167-.539a2.386,2.386,0,0,1,1.283-.321q1.462,0,1.462,1.539v1.347a5.528,5.528,0,0,0,.051.885Zm-.115-1.847c-.924,0-1.373.218-1.373.744s.244.577.564.577a.8.8,0,0,0,.808-.757Z" transform="translate(-328.215 -51.535)"/><path class="b" d="M371.975,42.005a.5.5,0,1,1,.526-.5.487.487,0,0,1-.526.5Zm.423,4.336h-.821v-3.72h.821Z" transform="translate(-357.941 -40.915)"/><path class="b" d="M390.834,45.726H390V40.3h.821Z" transform="translate(-374.068 -40.3)"/><path class="b" d="M408.122,56.961l-.064-.423h-.026a1.27,1.27,0,0,1-1.09.513,1.079,1.079,0,0,1-1.142-1.09c0-.924.8-1.4,2.168-1.4V54.5q0-.731-.77-.731a1.732,1.732,0,0,0-.975.282l-.167-.539a2.386,2.386,0,0,1,1.283-.321q1.462,0,1.462,1.539v1.347a5.734,5.734,0,0,0,.051.885Zm-.115-1.847c-.924,0-1.373.218-1.373.744s.244.577.564.577a.8.8,0,0,0,.808-.757Z" transform="translate(-387.841 -51.535)"/><path class="b" d="M442.237,45.816a1.257,1.257,0,0,1-1.167-.654h-.013l-.051.577H440.3c.026-.3.026-.641.026-1V40.3h.834v2.245h.013a1.272,1.272,0,0,1,1.18-.616c.9,0,1.526.77,1.526,1.886A1.822,1.822,0,0,1,442.237,45.816Zm-.18-3.233a.949.949,0,0,0-.911.988v.654a.911.911,0,0,0,.9.936c.616,0,.988-.5.988-1.308S442.648,42.583,442.057,42.583Z" transform="translate(-417.916 -40.3)"/><path class="b" d="M478.621,45.726H477.8V40.3h.821Z" transform="translate(-450.605 -40.3)"/><path class="b" d="M496.971,55.142H494.5a1.068,1.068,0,0,0,1.167,1.1,2.8,2.8,0,0,0,1-.18l.128.577a3.1,3.1,0,0,1-1.244.231A1.719,1.719,0,0,1,493.7,55a1.819,1.819,0,0,1,1.757-2c1.052,0,1.552.706,1.552,1.77A1.55,1.55,0,0,1,496.971,55.142Zm-.757-.59c0-.577-.295-.975-.821-.975s-.847.41-.9.975Z" transform="translate(-464.465 -51.371)"/><path class="b" d="M546.1,56.887a1.77,1.77,0,0,1-1.8-1.911A1.844,1.844,0,0,1,546.16,53a1.723,1.723,0,0,1,1.8,1.911A1.837,1.837,0,0,1,546.1,56.887Zm.026-3.271c-.6,0-.975.564-.975,1.334s.385,1.321.975,1.321.962-.6.962-1.347-.372-1.321-.962-1.321Z" transform="translate(-508.575 -51.371)"/><path class="b" d="M585.345,56.794h-.821V54.652c0-.654-.257-.988-.744-.988a.867.867,0,0,0-.834.911v2.219h-.821V54.139c0-.334-.013-.68-.026-1.065h.731l.039.577h.026a1.334,1.334,0,0,1,1.18-.654c.783,0,1.3.6,1.3,1.565v2.232Z" transform="translate(-541.526 -51.368)"/><path class="b" d="M634.345,47.939h-.911v1.809q0,.693.488.693a1.641,1.641,0,0,0,.372-.038l.026.629a1.847,1.847,0,0,1-.641.09c-.654,0-1.039-.359-1.039-1.3V47.939H632.1v-.616h.539v-.68l.808-.244v.924h.911Z" transform="translate(-585.112 -45.618)"/><path class="b" d="M661.733,45.726H660.9V43.61c0-.667-.257-1-.744-1a.781.781,0,0,0-.821.885v2.232H658.5V40.3h.834v2.232h.013a1.257,1.257,0,0,1,1.116-.6c.782,0,1.27.616,1.27,1.591Z" transform="translate(-608.125 -40.3)"/><path class="b" d="M694.371,55.142H691.9a1.068,1.068,0,0,0,1.167,1.1,2.783,2.783,0,0,0,1-.18l.128.577a3.1,3.1,0,0,1-1.244.231A1.719,1.719,0,0,1,691.1,55a1.819,1.819,0,0,1,1.758-2c1.052,0,1.552.706,1.552,1.77A1.605,1.605,0,0,1,694.371,55.142Zm-.757-.59c0-.577-.3-.975-.821-.975s-.847.41-.9.975Z" transform="translate(-636.543 -51.371)"/></g></g></svg>