<svg xmlns="http://www.w3.org/2000/svg" xmlns:xlink="http://www.w3.org/1999/xlink" width="106.021" height="31.145" viewBox="0 0 106.021 31.145"><defs><style>.a,.b{stroke:#fff;}.b,.c{fill:#fff;}.b{stroke-miterlimit:10;stroke-width:0.16px;}.d{fill:url(#a);}.e{fill:url(#b);}.f{fill:url(#c);}.g{fill:url(#d);}</style><linearGradient id="a" x1="1.063" y1="0.108" x2="-0.231" y2="0.784" gradientUnits="objectBoundingBox"><stop offset="0" stop-color="#00a0ff"/><stop offset="0.01" stop-color="#00a1ff"/><stop offset="0.26" stop-color="#00beff"/><stop offset="0.51" stop-color="#00d2ff"/><stop offset="0.76" stop-color="#00dfff"/><stop offset="1" stop-color="#00e3ff"/></linearGradient><linearGradient id="b" x1="1.26" y1="0.684" x2="-1.112" y2="0.684" gradientUnits="objectBoundingBox"><stop offset="0" stop-color="#ffe000"/><stop offset="0.41" stop-color="#ffbd00"/><stop offset="0.78" stop-color="orange"/><stop offset="1" stop-color="#ff9c00"/></linearGradient><linearGradient id="c" x1="0.478" y1="-0.35" x2="-0.882" y2="1.434" gradientUnits="objectBoundingBox"><stop offset="0" stop-color="#ff3a44"/><stop offset="1" stop-color="#c31162"/></linearGradient><linearGradient id="d" x1="-0.57" y1="0.222" x2="0.038" y2="1.019" gradientUnits="objectBoundingBox"><stop offset="0" stop-color="#32a071"/><stop offset="0.07" stop-color="#2da771"/><stop offset="0.48" stop-color="#15cf74"/><stop offset="0.8" stop-color="#06e775"/><stop offset="1" stop-color="#00f076"/></linearGradient></defs><g transform="translate(0.5 0.5)"><path class="a" d="M110.521,32.618a3.027,3.027,0,0,1-3.027,3.027H8.527A3.027,3.027,0,0,1,5.5,32.618V8.527A3.027,3.027,0,0,1,8.527,5.5h98.967a3.027,3.027,0,0,1,3.027,3.027V32.618Z" transform="translate(-5.5 -5.5)"/><g transform="translate(7.24 4.759)"><g transform="translate(24.731)"><path class="b" d="M258.793,44.24a2.1,2.1,0,0,1-.59,1.565,2.322,2.322,0,0,1-1.745.693,2.412,2.412,0,0,1-1.745-.706,2.478,2.478,0,0,1,0-3.489,2.4,2.4,0,0,1,1.745-.706,2.5,2.5,0,0,1,.975.192,1.924,1.924,0,0,1,.744.526l-.41.41a1.607,1.607,0,0,0-1.3-.552,1.822,1.822,0,0,0-1.3.513,1.969,1.969,0,0,0,0,2.707,1.834,1.834,0,0,0,1.3.513,1.809,1.809,0,0,0,1.321-.526,1.462,1.462,0,0,0,.4-.949h-1.719v-.539h2.3A1.58,1.58,0,0,1,258.793,44.24Z" transform="translate(-253.994 -41.597)"/></g><g transform="translate(30.402 0.116)"><path class="b" d="M300.958,43.077h-2.142v1.475h1.937v.564h-1.937V46.6h2.155v.577H298.2V42.5h2.758Z" transform="translate(-298.2 -42.5)"/></g><g transform="translate(33.801 0.116)"><path class="b" d="M326.624,47.169h-.6V43.077H324.7V42.5h3.245v.577h-1.321Z" transform="translate(-324.7 -42.5)"/></g><g transform="translate(39.407 0.116)"><path class="b" d="M368.4,47.169V42.5h.6v4.669Z" transform="translate(-368.4 -42.5)"/></g><g transform="translate(40.78 0.116)"><path class="b" d="M381.024,47.169h-.6V43.077H379.1V42.5h3.258v.577h-1.334Z" transform="translate(-379.1 -42.5)"/></g><g transform="translate(46.026 0.02)"><path class="b" d="M424.152,45.928a2.476,2.476,0,0,1-3.464,0,2.511,2.511,0,0,1,0-3.464,2.463,2.463,0,0,1,3.464,0,2.478,2.478,0,0,1,0,3.464Zm-3.015-.4a.774.774,0,1,0-.013,0Z" transform="translate(-419.995 -41.752)"/></g><g transform="translate(51.735 0.116)"><path class="b" d="M464.5,47.169V42.5h.744l2.3,3.63h.026l-.026-.9V42.5h.6v4.669h-.629l-2.412-3.81h-.026l.026.9v2.912Z" transform="translate(-464.5 -42.5)"/></g><path class="c" d="M273.558,107.165a3.31,3.31,0,1,0,3.374,3.322A3.289,3.289,0,0,0,273.558,107.165Zm0,5.324a2.017,2.017,0,1,1,1.9-2.014A1.928,1.928,0,0,1,273.558,112.488Zm-7.338-5.324a3.31,3.31,0,1,0,3.361,3.31A3.281,3.281,0,0,0,266.221,107.165Zm0,5.324a2.017,2.017,0,0,1,0-4.028,2.018,2.018,0,0,1,0,4.028Zm-8.736-4.31v1.411h3.4a3.022,3.022,0,0,1-.77,1.77,3.633,3.633,0,0,1-2.63,1.026,3.746,3.746,0,0,1,0-7.479,3.63,3.63,0,0,1,2.566,1l1-.988a4.99,4.99,0,0,0-3.566-1.424,5.146,5.146,0,1,0,0,10.288,4.589,4.589,0,0,0,4.862-4.733,4.654,4.654,0,0,0-.077-.885Zm35.713,1.09a3.1,3.1,0,0,0-2.873-2.1,3.152,3.152,0,0,0-3.156,3.31,3.258,3.258,0,0,0,3.322,3.31,3.335,3.335,0,0,0,2.8-1.462l-1.142-.757a1.918,1.918,0,0,1-1.655.911,1.7,1.7,0,0,1-1.629-1l4.49-1.834Zm-4.567,1.1a1.834,1.834,0,0,1,1.757-1.937,1.3,1.3,0,0,1,1.244.706Zm-3.643,3.22h1.475v-9.736h-1.475Zm-2.412-5.683h-.051a2.335,2.335,0,0,0-1.757-.744,3.311,3.311,0,0,0,0,6.619,2.3,2.3,0,0,0,1.757-.757h.051v.475a1.706,1.706,0,0,1-1.8,1.95,1.868,1.868,0,0,1-1.693-1.18l-1.283.526a3.194,3.194,0,0,0,2.976,1.975c1.732,0,3.181-1,3.181-3.451V107.37h-1.385Zm-1.68,4.58a2.013,2.013,0,0,1,0-4.015,2.019,2.019,0,0,1-.013,4.015Zm19.216-8.633h-3.528v9.736h1.475V109.91h2.052a3.034,3.034,0,1,0,0-6.055Zm.038,4.695h-2.1v-3.335h2.1a1.668,1.668,0,1,1,0,3.335Zm9.082-1.4a2.749,2.749,0,0,0-2.617,1.488l1.308.539a1.4,1.4,0,0,1,1.347-.718,1.418,1.418,0,0,1,1.552,1.257v.1a3.259,3.259,0,0,0-1.539-.372c-1.411,0-2.835.77-2.835,2.194a2.2,2.2,0,0,0,2.45,2.142,2.065,2.065,0,0,0,1.873-.949h.051v.757h1.424v-3.746A2.711,2.711,0,0,0,309.233,107.152Zm-.18,5.336c-.475,0-1.154-.231-1.154-.821s.834-1.039,1.565-1.039a2.668,2.668,0,0,1,1.347.334,1.783,1.783,0,0,1-1.757,1.527Zm8.351-5.118-1.693,4.22h-.051l-1.745-4.22h-1.578l2.63,5.9-1.5,3.284h1.539l4.041-9.185Zm-13.251,6.221h1.475v-9.736h-1.475Z" transform="translate(-227.699 -95.555)"/><g transform="translate(0 0.488)"><path class="d" d="M61.572,45.451a1.552,1.552,0,0,0-.372,1.09V63.782a1.455,1.455,0,0,0,.372,1.09l.051.051L71.4,55.277v-.231L61.636,45.4Z" transform="translate(-61.2 -45.4)"/></g><g transform="translate(10.198 6.915)"><path class="e" d="M143.958,102.17l-3.258-3.22V98.72l3.258-3.22.077.038,3.861,2.168c1.1.616,1.1,1.629,0,2.245l-3.861,2.168Z" transform="translate(-140.7 -95.5)"/></g><g transform="translate(0.372 10.237)"><path class="f" d="M77.261,124.7l-3.335-3.3L64.1,131.124a1.3,1.3,0,0,0,1.642.051l11.519-6.465" transform="translate(-64.1 -121.4)"/></g><g transform="translate(0.372 0.229)"><path class="g" d="M77.261,50.1,65.742,43.639a1.3,1.3,0,0,0-1.642.051L73.926,53.4Z" transform="translate(-64.1 -43.38)"/></g></g></g></svg>