<svg xmlns="http://www.w3.org/2000/svg" width="11.854" height="13.548" viewBox="0 0 11.854 13.548"><defs><style>.a{fill:#8b8b8b;}</style></defs><path class="a" d="M440.816,791.74c0,1.533-.008,3.067,0,4.6a1.277,1.277,0,0,1-.831,1.237,1.639,1.639,0,0,1-.531.076q-3.562.007-7.125,0c-.682,0-1.364-.017-2.044,0a1.3,1.3,0,0,1-1.322-1.315q.02-4.608,0-9.216a1.3,1.3,0,0,1,1.326-1.329c.356,0,.713,0,1.069,0,.116,0,.154-.042.153-.154,0-.382,0-.764,0-1.146,0-.291.1-.387.394-.389s.609,0,.914,0c.259,0,.368.111.369.368,0,.382,0,.764,0,1.146,0,.122.028.175.163.174q1.541-.007,3.082,0c.13,0,.169-.044.167-.17-.006-.382,0-.764,0-1.146,0-.261.106-.369.364-.372q.48-.005.96,0c.241,0,.349.111.351.353,0,.377,0,.754,0,1.131,0,.2,0,.2.209.2.418.006.837-.007,1.253.026a1.216,1.216,0,0,1,1.073,1.142c0,.072,0,.145,0,.217Q440.816,789.463,440.816,791.74Zm-5.919-3.407h0q-2.246,0-4.492,0c-.139,0-.187.037-.187.182q.006,3.787,0,7.574c0,.269.042.311.3.311h8.751c.242,0,.292-.048.292-.289q0-3.794,0-7.589c0-.153-.05-.189-.2-.189C437.88,788.334,436.388,788.332,434.9,788.332Z" transform="translate(-428.966 -784.112)"/><path class="a" d="M527.557,1024.588h-2.524c-.327,0-.437-.108-.44-.435,0-.16-.005-.32,0-.48a.33.33,0,0,1,.366-.351q2.586,0,5.172,0c.263,0,.383.127.388.394q0,.232,0,.465c-.005.286-.121.4-.409.4C529.261,1024.589,528.409,1024.588,527.557,1024.588Z" transform="translate(-521.629 -1015.911)"/></svg>