<svg xmlns="http://www.w3.org/2000/svg" width="22.118" height="19.906" viewBox="0 0 22.118 19.906"><defs><style>.a{fill:#f26c61;}</style></defs><g transform="translate(0 0)"><path class="a" d="M21.749,43.169H16.486l-.494-1.482a3.318,3.318,0,0,0,3.177-3.311V36.534h.369a1.1,1.1,0,0,0,.369-2.144V33.216a.369.369,0,0,0-.369-.369H18.432V24.369A.369.369,0,0,0,18.063,24H12.9a.369.369,0,0,0-.369.369v1.873a2.58,2.58,0,0,0-2.212,2.551v.737a.369.369,0,0,0,.369.369h4.424a.369.369,0,0,0,.369-.369v-.737a2.58,2.58,0,0,0-2.212-2.551v-1.5h4.424v8.11H16.589a.369.369,0,0,0-.369.369v1.106H2.58a1.106,1.106,0,0,0,0,2.212h.369v1.843a3.318,3.318,0,0,0,3.177,3.311l-.494,1.482H.369a.369.369,0,1,0,0,.737H21.749a.369.369,0,1,0,0-.737Zm-7-14.377v.369H11.059v-.369a1.843,1.843,0,0,1,3.686,0Zm3.686,4.792h.737v.737h-.737Zm-1.475,0h.737v.737h-.737ZM2.58,35.8a.369.369,0,0,1,0-.737H19.538a.369.369,0,0,1,0,.737Zm4.526,7.373h-.7L6.9,41.694h.7Zm.777,0,.491-1.475h5.367l.491,1.475Zm7.127,0-.492-1.475h.7l.492,1.475ZM6.267,40.957a2.583,2.583,0,0,1-2.58-2.58V36.534H18.432v1.843a2.583,2.583,0,0,1-2.58,2.58Z" transform="translate(0 -24)"/></g></svg>