<svg xmlns="http://www.w3.org/2000/svg" width="10.192" height="13.568" viewBox="0 0 10.192 13.568"><defs><style>.a{fill:#f26c61;}</style></defs><g transform="translate(-417.406 -754.36)"><path class="a" d="M417.414,767.917c0-.072-.008-.122-.008-.171q0-6.051,0-12.1a1.271,1.271,0,0,1,1.045-1.271.972.972,0,0,1,.186-.012q3.863,0,7.725,0a1.254,1.254,0,0,1,1.235,1.262q0,3.177,0,6.354,0,2.866,0,5.732v.218c-.192-.109-.357-.2-.521-.3q-2.19-1.278-4.377-2.56a.335.335,0,0,0-.392,0q-2.367,1.39-4.741,2.77C417.524,767.864,417.478,767.884,417.414,767.917Z"/></g></svg>