<svg xmlns="http://www.w3.org/2000/svg" width="135.166" height="44.023" viewBox="0 0 135.166 44.023"><defs><style>.a{fill:#ec2027;}.b{fill:#0c9fda;}.c{fill:#8cc750;}</style></defs><g transform="translate(1536.347 -371.577)"><g transform="translate(-1536.347 371.577)"><path d="M-1434.174,377.549q-3.072,0-6.146,0a.256.256,0,0,0-.285.189c-.351.9-.71,1.791-1.067,2.688q-1.725,4.365-3.455,8.732-1.046,2.644-2.1,5.288c-.075.189-.154.377-.251.615-.057-.126-.093-.2-.121-.268q-.448-1.134-.893-2.269-1.88-4.744-3.761-9.486c-.7-1.763-1.4-3.524-2.1-5.289a.258.258,0,0,0-.282-.2q-3.087.007-6.176,0c-.267,0-.32.056-.328.314,0,.06,0,.12,0,.182v19.3c0,.06,0,.12,0,.181a.342.342,0,0,0,.121.293c1.114,1.1,2.223,2.206,3.337,3.306a.394.394,0,0,0,.233.112c.426.01.852.009,1.278,0a.266.266,0,0,0,.278-.287c0-.069,0-.141,0-.211V387.724c0-.11,0-.221.007-.331.031-.03.026-.069.029-.1,0,.036,0,.075.027.1q.472,1.19.944,2.378,1,2.532,2.011,5.064,1.226,3.091,2.445,6.186a.3.3,0,0,0,.327.224q2.614-.009,5.232,0a.3.3,0,0,0,.334-.217q1.261-3.223,2.542-6.44,1.413-3.569,2.828-7.135a2.23,2.23,0,0,1,.118-.2v13.568c0,.4.016.414.406.414h3.438c.336,0,.67,0,1,0s.357-.036.36-.369V377.886c-.006-.283-.054-.337-.335-.337" transform="translate(1569.004 -368.986)"/><path d="M-1463.833,397.821a.4.4,0,0,0-.376-.185c-.354.01-.708,0-1.063,0-.257,0-.261,0-.261.244q0,2.6,0,5.192a.386.386,0,0,0,.112.3c.262.264.521.535.786.795.133.132.308.069.462.049.03,0,.053-.172.053-.265,0-1.248,0-2.494,0-3.742v-.294l.057-.023c.125.156.247.314.372.47q1.45,1.833,2.9,3.669a.461.461,0,0,0,.427.211c.354-.019.71,0,1.064-.006.265,0,.265,0,.27-.263V398c0-.06,0-.12,0-.181.009-.13-.049-.179-.178-.178-.336,0-.67,0-1.005,0-.265,0-.265,0-.268.265,0,.05,0,.1,0,.151q0,1.947,0,3.894c0,.08-.01.159-.019.277-.057-.066-.076-.088-.095-.112q-1.622-2.145-3.237-4.293" transform="translate(1567.095 -360.262)"/><path d="M-1456.064,400.355c-.842.011-1.684,0-2.526.006a.516.516,0,0,1-.49-.285.686.686,0,0,1,.615-1.047c1.053.043,2.108.014,3.162.01a.456.456,0,0,0,.282-.057,9.463,9.463,0,0,0,.854-.858c.076-.09.044-.283.031-.426,0-.027-.158-.056-.241-.056-1.4,0-2.8-.007-4.2,0a2.849,2.849,0,0,0-.684.1,1.93,1.93,0,0,0-1.32,2.169,1.912,1.912,0,0,0,1.834,1.611c.809-.024,1.622,0,2.432,0a1.733,1.733,0,0,1,.272.013.653.653,0,0,1,.515.71.59.59,0,0,1-.625.592h-3.528c-.253,0-.506-.006-.76,0-.057,0-.159.052-.162.086-.01.142-.056.293.079.422.252.245.5.5.736.76a.394.394,0,0,0,.318.133c1.175,0,2.352,0,3.527,0a1.7,1.7,0,0,0,.813-.205,1.969,1.969,0,0,0,.947-2.266,1.908,1.908,0,0,0-1.886-1.41" transform="translate(1569.232 -360.261)"/><path d="M-1494.761,401.526c.789-.042,1.582-.009,2.371-.007a1.507,1.507,0,0,1,.242.007.639.639,0,0,1,.528.753.605.605,0,0,1-.623.564c-.69-.029-1.378-.009-2.07-.009h-1.671c-.182,0-.364-.007-.546.006-.056,0-.151.056-.154.092a.468.468,0,0,0,.124.468,5.445,5.445,0,0,1,.637.645.506.506,0,0,0,.442.2c1.125-.007,2.25-.021,3.376,0a1.925,1.925,0,0,0,1.832-2.491,1.915,1.915,0,0,0-1.9-1.4c-.832.016-1.664.006-2.5,0a.582.582,0,0,1-.594-.62.61.61,0,0,1,.555-.7c.08-.006.162,0,.242,0,1.035,0,2.068,0,3.1,0a.465.465,0,0,0,.281-.062c.28-.263.542-.541.8-.82a.446.446,0,0,0,.037-.456c-.011-.042-.173-.059-.265-.059-1.368,0-2.737-.012-4.106,0a2.391,2.391,0,0,0-.885.153,1.851,1.851,0,0,0-1.187,1.734,1.9,1.9,0,0,0,1.919,1.992" transform="translate(1553.565 -360.262)"/><path d="M-1466.494,397.682a14.748,14.748,0,0,0-1.632-.007,2.9,2.9,0,0,0-2.183,1.13,3.285,3.285,0,0,0-.756,2.513,3.269,3.269,0,0,0,2.529,2.837c.377.06.76.066,1.146.1v-.027c.153,0,.3-.007.458,0a3.186,3.186,0,0,0,3.006-2.09,3.306,3.306,0,0,0-.984-3.763,2.708,2.708,0,0,0-1.583-.693m-.9,5.37a2.115,2.115,0,0,1-2.219-1.989,2.115,2.115,0,0,1,2.219-1.989,2.111,2.111,0,0,1,2.21,1.989,2.111,2.111,0,0,1-2.21,1.989" transform="translate(1564.688 -360.253)"/><path d="M-1484.455,400.2a3.269,3.269,0,0,0-2.394-2.46,7.175,7.175,0,0,0-1.928-.073,3.1,3.1,0,0,0-2.427,1.446,3.085,3.085,0,0,0-.492,2.432,3.178,3.178,0,0,0,2.075,2.5,3.84,3.84,0,0,0,1.557.188h.39a3.126,3.126,0,0,0,2.838-1.6,3.268,3.268,0,0,0,.379-2.434m-3.607,2.857a2.111,2.111,0,0,1-2.21-1.989,2.111,2.111,0,0,1,2.21-1.989,2.112,2.112,0,0,1,2.212,1.989,2.112,2.112,0,0,1-2.212,1.989" transform="translate(1555.708 -360.26)"/><path d="M-1475.422,401.247c.023-.582,0-1.166,0-1.75h.021c0-.554,0-1.107,0-1.661,0-.108,0-.2-.155-.2-.376.006-.75,0-1.126,0-.11,0-.137.055-.133.151,0,.07,0,.141,0,.211,0,.957,0,1.913,0,2.87a1.961,1.961,0,0,1-.453,1.309,1.745,1.745,0,0,1-2.189.459,1.85,1.85,0,0,1-1.019-1.7c-.007-.987,0-1.974,0-2.96a.679.679,0,0,0-.006-.209c-.019-.052-.082-.125-.126-.126-.386-.01-.771-.01-1.156,0-.042,0-.1.077-.119.131a.5.5,0,0,0-.006.179c0,1.017.007,2.034,0,3.051a3.243,3.243,0,0,0,3.591,3.22,3.116,3.116,0,0,0,2.048-1.056,3,3,0,0,0,.823-1.923" transform="translate(1559.994 -360.261)"/><path d="M-1474.671,403.341c.261.252.5.523.763.776a.455.455,0,0,0,.261.113c.3.027.3.019.3-.274q0-2.323,0-4.648c0-.265,0-.267.261-.268.588,0,1.176,0,1.764,0,.152,0,.214-.036.207-.2-.013-.31,0-.622,0-.935,0-.264,0-.267-.267-.267q-1.323,0-2.646,0h-.73c-.648,0-1.3,0-1.945,0-.241,0-.242,0-.244.25,0,.3,0,.6,0,.906,0,.241-.024.247.248.245.587,0,1.175,0,1.763,0,.124,0,.2.026.181.165-.006.06,0,.12,0,.181q0,1.811,0,3.623a.4.4,0,0,0,.084.334" transform="translate(1562.14 -360.261)"/><path d="M-1496.551,397.672a.583.583,0,0,0-.181-.006h-5.258a.594.594,0,0,0-.182.006c-.046.014-.116.065-.116.1,0,.439.019.876.03,1.314.148-.006.3-.014.445-.014.516,0,1.034,0,1.549,0,.152,0,.2.046.183.188a1.3,1.3,0,0,0,0,.182c0,1.206,0,2.412,0,3.62a.444.444,0,0,0,.066.275c.264.293.545.566.816.85.136.142.307.085.458.062.037-.006.052-.188.067-.29a.757.757,0,0,0,0-.151q0-2.248,0-4.5c0-.232,0-.234.227-.237.182,0,.364,0,.547,0h1.246c.1,0,.209.009.209-.145,0-.383,0-.764-.006-1.146,0-.037-.062-.092-.1-.106" transform="translate(1551.136 -360.25)"/><path d="M-1480.943,402.834h-3.5c-.059,0-.12,0-.181,0-.112.009-.176-.026-.165-.151a2.092,2.092,0,0,0,0-.211v-4.466c0-.07,0-.141,0-.211,0-.116-.049-.159-.165-.158-.365,0-.729,0-1.094,0-.121,0-.164.047-.154.161,0,.05,0,.1,0,.151v5.976c0,.06,0,.12,0,.181,0,.086.029.133.12.13.06,0,.122,0,.182,0,1.358,0,2.715-.006,4.074,0a.545.545,0,0,0,.445-.194,5.246,5.246,0,0,1,.518-.511.642.642,0,0,0,.229-.7Z" transform="translate(1558.123 -360.262)"/><path d="M-1506.6,397.6c-.326,0-.648,0-.974,0-.211,0-.215,0-.215.217q0,2.61,0,5.222a.365.365,0,0,0,.118.293c.2.189.377.391.566.588a2.962,2.962,0,0,0,.215.211c.14.123.31.067.463.044.03,0,.049-.174.05-.267,0-1.007,0-2.012,0-3.019V399.2c0-.453,0-.906,0-1.36,0-.235,0-.238-.222-.24" transform="translate(1548.745 -360.279)"/><path d="M-1472.106,403.642a4.307,4.307,0,0,1,.48.5.459.459,0,0,0,.483.075c.125-.029.062-.189.063-.29,0-1,0-1.991,0-2.986V400.7q0-1.4,0-2.805c0-.3-.013-.258-.267-.258-.274,0-.548,0-.82,0-.347,0-.327-.017-.327.33,0,1.579.014,3.158-.009,4.736a1.039,1.039,0,0,0,.393.938" transform="translate(1564.071 -360.262)"/><path d="M-1495.182,401.24a1.55,1.55,0,0,0,.182,0c3.256,0,6.511.007,9.767-.006a17.319,17.319,0,0,0,1.866-.115,11.266,11.266,0,0,0,6.444-3.018,11.889,11.889,0,0,0,2.811-3.778,11.5,11.5,0,0,0,1.045-4.482,12.432,12.432,0,0,0-.107-2.164,11.206,11.206,0,0,0-1-3.36,12.132,12.132,0,0,0-2.725-3.616,11.961,11.961,0,0,0-3.128-2.1,11.335,11.335,0,0,0-4.663-1.043c-3.438-.026-6.876-.006-10.314-.006h-.155c-.209.013-.277.08-.284.3v22.925c0,.067-.006.142,0,.208.014.189.074.25.264.263m4.961-5.343V382.7c0-.095.033-.133.128-.128h.208c1.557,0,3.108.013,4.658-.006a6.627,6.627,0,0,1,4.975,2.049,6.5,6.5,0,0,1,1.8,3.211,6.652,6.652,0,0,1-.512,4.551,6.776,6.776,0,0,1-4.982,3.743,6.26,6.26,0,0,1-1.057.087c-1.646.007-3.283,0-4.928,0a.854.854,0,0,1-.182,0,.18.18,0,0,1-.1-.108.725.725,0,0,1-.006-.208" transform="translate(1554.106 -368.987)"/><path d="M-1505.318,396.347h8.849c.062,0,.129.006.182,0a.185.185,0,0,1,.231.148,1.23,1.23,0,0,0,.06.168c.579,1.464,1.166,2.924,1.738,4.389a.26.26,0,0,0,.291.2c1.543-.007,3.079-.007,4.623-.007.324,0,.4-.115.29-.4-.518-1.311-1.03-2.615-1.55-3.925q-.97-2.44-1.941-4.892-1.831-4.617-3.653-9.235-1-2.521-1.989-5.04a.267.267,0,0,0-.31-.2c-1.1.006-2.19,0-3.29,0-.673,0-1.354.006-2.035,0a.21.21,0,0,0-.237.161c-.228.6-.472,1.2-.707,1.794q-1.465,3.69-2.926,7.386-1.736,4.376-3.471,8.757c-.68,1.728-1.368,3.448-2.048,5.175-.109.283-.034.417.248.417,1.563,0,3.121,0,4.686.007a.238.238,0,0,0,.262-.189c.58-1.47,1.166-2.943,1.746-4.422.142-.356.291-.713.432-1.069a.132.132,0,0,1,.053.007c0,.175-.007.349,0,.523.007.2.049.242.25.25.074.006.149,0,.217,0m1.106-4.886q1.465-3.7,2.925-7.386c.04-.1.082-.2.155-.377,1.031,2.582,2.024,5.109,3.035,7.663h-.346c-1.152,0-2.311.006-3.464-.007a.729.729,0,0,0-.559.222c-.938.947-1.888,1.888-2.838,2.823-.019.026-.04.026-.06,0,.384-.982.767-1.956,1.153-2.937" transform="translate(1546.372 -368.985)"/><path class="a" d="M-1505.412,385.217a13.646,13.646,0,0,0-1.192-1.146,16.3,16.3,0,0,0-7.345-3.425c-1.13-.217-2.276-.371-3.423-.511-1.287-.169-2.556-.28-3.843-.419-.928-.093-1.875-.185-2.8-.278-.869-.077-1.719-.171-2.573-.217a10.576,10.576,0,0,0-3.809.495,8.283,8.283,0,0,0-4.587,3.456,9.036,9.036,0,0,0-1.271,6.118c.248,1.906.574,3.8.866,5.7.265,1.767.544,3.533.823,5.3.171,1.132.324,2.262.557,3.362a11.345,11.345,0,0,0,3.921,6.523,8.014,8.014,0,0,0,6.646,1.811c1.875-.308,3.749-.588,5.638-.836,1.674-.232,3.363-.4,5.052-.588.185-.016.371-.047.573-.077.139-1.256.278-2.494.417-3.765h-.34c-.31.016-.605.047-.914.062-1.163.077-2.325.155-3.488.262s-2.339.218-3.5.341c-1.177.125-2.355.25-3.532.419a5.065,5.065,0,0,1-3.735-.852,6.186,6.186,0,0,1-2.586-3.61,14.636,14.636,0,0,1-.311-2c-.155-1.146-.264-2.292-.4-3.439-.155-1.332-.311-2.681-.466-4.012-.153-1.364-.324-2.728-.465-4.106a5.248,5.248,0,0,1,2.48-5.268,6.123,6.123,0,0,1,3.749-.929c1.317.077,2.635.171,3.951.248,2.091.108,4.2.247,6.289.5a8.964,8.964,0,0,1,4.571,1.859,6.062,6.062,0,0,1,1.735,2.077,3.636,3.636,0,0,1,.387,2.169c-.264,1.875-.356,3.781-.528,5.67-.092,1.084-.215,2.153-.324,3.238a1.1,1.1,0,0,1-.621.9,2.509,2.509,0,0,1-1.255.326c-.294-.014-.6,0-.912,0h-.325a2.569,2.569,0,0,1,.016-.371c.107-1.146.231-2.308.34-3.471q.209-2.138.419-4.275a4.976,4.976,0,0,0-.079-1.8,5.622,5.622,0,0,0-1.966-2.929,8.774,8.774,0,0,0-4.988-1.922l-3.085-.277a6.994,6.994,0,0,0-2.99.34,5.362,5.362,0,0,0-3.718,5.546c.109,1.426.247,2.851.372,4.276.187,2.015.356,4.029.542,6.042a4.437,4.437,0,0,0,1.954,3.393,3.768,3.768,0,0,0,3.066.558,6.675,6.675,0,0,0,1.892-.836,37.692,37.692,0,0,0,3.687-2.542c.09-.062.185-.123.308-.217-.031.852-.06,1.642-.093,2.464l.79-.047c1.457-.062,2.9-.123,4.354-.2a8.659,8.659,0,0,0,.915-.063,7.276,7.276,0,0,0,4.816-2.99,4.1,4.1,0,0,0,.791-1.811q.279-1.79.513-3.578c.122-.947.184-1.906.294-2.867.107-1.007.232-2,.34-2.99a5.92,5.92,0,0,0-1.6-4.787m-10.721,6.678c-.077,1.968-.155,3.92-.231,5.888a.456.456,0,0,1-.188.387,37.37,37.37,0,0,1-4.46,2.805,6.03,6.03,0,0,1-1.782.62c-.479.076-.527.06-.541-.419-.049-1.116-.093-2.247-.14-3.363-.016-.526-.046-1.038-.062-1.563-.063-1.519-.123-3.038-.2-4.587a4.3,4.3,0,0,1,.031-.635,1.662,1.662,0,0,1,1.595-1.364,10.364,10.364,0,0,1,1.193,0c.961.047,1.906.109,2.851.171a3.491,3.491,0,0,1,1.177.31,1.165,1.165,0,0,1,.713.931,4.673,4.673,0,0,1,.046.82" transform="translate(1536.347 -368.264)"/><path class="b" d="M-1524.629,374.617a2.819,2.819,0,0,1,.268-.673,4.163,4.163,0,0,1,3.805-2.364c1.9-.019,3.8.034,5.7.057.2,0,.222.02.221.225-.014,1.352.013,2.709-.056,4.06a4.189,4.189,0,0,1-2.438,3.71,4.052,4.052,0,0,1-1.946.427c-1.157-.017-2.312-.026-3.469-.039-.232,0-.237-.007-.234-.24s.013-.475.006-.71c0-.163.06-.215.219-.212,1.119.017,2.235.009,3.35.046a3.257,3.257,0,0,0,3.115-2.055,3.721,3.721,0,0,0,.3-1.431c.007-.8.02-1.591.029-2.385,0-.212,0-.221-.217-.222-1.528-.019-3.057-.053-4.585-.049a5.167,5.167,0,0,0-3.911,1.75c-.039.043-.066.106-.156.1" transform="translate(1541.435 -371.577)"/><path class="c" d="M-1514.828,378.524a3.494,3.494,0,0,1-.336.807,4.284,4.284,0,0,1-3.517,2.237c-.175.014-.348.019-.523.016l-5.345-.062c-.254,0-.254,0-.251-.257.017-1.338.029-2.675.05-4.01a4.277,4.277,0,0,1,3.73-4.123c.377-.046,4.013,0,4.159-.007.106-.006.155.042.152.151,0,.277-.009.552-.007.829,0,.115-.046.166-.162.162s-.237,0-.354,0q-1.549-.017-3.1-.037a3.109,3.109,0,0,0-2.835,1.648,3.553,3.553,0,0,0-.506,1.872c0,.777-.017,1.556-.026,2.333,0,.241,0,.242.245.245,1.473.019,2.945.03,4.416.053a5.26,5.26,0,0,0,4.089-1.774c.023-.024.044-.05.069-.075a.151.151,0,0,1,.049,0" transform="translate(1541.36 -370.911)"/><path d="M-1478.806,401.225a.912.912,0,0,0,.236.014h4.535c.3,0,.255.027.364-.25q.8-2.016,1.6-4.032c.189-.47.377-.942.558-1.418a.2.2,0,0,0,.056.013v.458c.006.323.019.336.343.336h9.04c.268,0,.275,0,.37.242.586,1.479,1.166,2.95,1.745,4.429a.3.3,0,0,0,.324.228c1.543-.006,3.079-.006,4.624-.006.317,0,.392-.12.277-.417q-1.334-3.378-2.676-6.768-1.385-3.487-2.764-6.969-1.842-4.647-3.682-9.288c-.113-.283-.053-.248-.363-.248h-5.2c-.25,0-.25,0-.344.234-.619,1.573-1.248,3.152-1.867,4.726q-1.506,3.791-3.006,7.581-1.85,4.658-3.693,9.321c-.2.491-.392.988-.581,1.486a.244.244,0,0,0,.109.328m8.694-9.214q1.568-3.974,3.148-7.944c.049-.108.095-.222.156-.37,1.017,2.567,2.014,5.1,3.032,7.662h-.343c-1.175,0-2.346.007-3.525-.006a.558.558,0,0,0-.453.188c-.957.954-1.92,1.908-2.878,2.863l-.026-.013c-.007-.02-.014-.034-.02-.055.3-.773.6-1.552.909-2.325" transform="translate(1561.276 -368.985)"/><path d="M-1500.543,398.942a5.445,5.445,0,0,0-.432-.465,3.349,3.349,0,0,0-2.385-.859,3.268,3.268,0,0,0-2.676,1.4,3.04,3.04,0,0,0-.585,1.984,3.125,3.125,0,0,0,1,2.278,3.482,3.482,0,0,0,4.7.062,3.335,3.335,0,0,0,.72-3.838c-.06-.135-.121-.262-.168-.4h0V399.1h-.006Zm-.889,3.986c-.215.2-.417.41-.627.611a.246.246,0,0,1-.148.08c-.621-.006-1.241.014-1.847-.046a2.352,2.352,0,0,1-1.875-1.325,2.693,2.693,0,0,1,1.288-3.8,2.023,2.023,0,0,1,.761-.188c.829-.027,1.658-.007,2.5-.007a.453.453,0,0,1-.148.512c-.189.161-.352.356-.539.523a.374.374,0,0,1-.242.08c-.486.013-.971.027-1.457.02a1.5,1.5,0,0,0-1.347,1.264,1.578,1.578,0,0,0,.875,1.721,1.611,1.611,0,0,0,.707.128c.641.007,1.275,0,1.915.007.082,0,.222.02.244.06a.326.326,0,0,1-.062.363" transform="translate(1549.254 -360.27)"/></g></g></svg>